HIERARCHY
ROOT mixamorig:Hips
{
	OFFSET 0.000000 99.791901 0.000000
	CHANNELS 6 Xposition Yposition Zposition Xrotation Yrotation Zrotation
	JOINT mixamorig:Spine
	{
		OFFSET 0.000038 9.923500 -1.227300
		CHANNELS 6 Xposition Yposition Zposition Xrotation Yrotation Zrotation
		JOINT mixamorig:Spine1
		{
			OFFSET -0.001154 11.645462 -1.422353
			CHANNELS 3 Xrotation Yrotation Zrotation
			JOINT mixamorig:Spine2
			{
				OFFSET -0.001065 13.360161 -1.626458
				CHANNELS 3 Xrotation Yrotation Zrotation
				JOINT mixamorig:Neck
				{
					OFFSET -0.001308 15.032516 0.792905
					CHANNELS 6 Xposition Yposition Zposition Xrotation Yrotation Zrotation
					JOINT mixamorig:Head
					{
						OFFSET -0.000902 10.321808 3.142400
						CHANNELS 6 Xposition Yposition Zposition Xrotation Yrotation Zrotation
						JOINT mixamorig:HeadTop_End
						{
							OFFSET -0.001416 18.474701 6.636400
							CHANNELS 6 Xposition Yposition Zposition Xrotation Yrotation Zrotation
							End Site
							{
								OFFSET -0.001707 19.630493 0.000000
							}
						}
					}
				}
				JOINT mixamorig:LeftShoulder
				{
					OFFSET 6.105007 9.110962 0.705601
					CHANNELS 6 Xposition Yposition Zposition Xrotation Yrotation Zrotation
					JOINT mixamorig:LeftArm
					{
						OFFSET 12.655048 -0.266434 -2.600898
						CHANNELS 3 Xrotation Yrotation Zrotation
						JOINT mixamorig:LeftForeArm
						{
							OFFSET 27.404696 0.000000 0.000000
							CHANNELS 3 Xrotation Yrotation Zrotation
							JOINT mixamorig:LeftHand
							{
								OFFSET 27.614513 0.000000 0.000000
								CHANNELS 3 Xrotation Yrotation Zrotation
								JOINT mixamorig:LeftHandThumb1
								{
									OFFSET 3.788795 -2.167099 3.003002
									CHANNELS 6 Xposition Yposition Zposition Xrotation Yrotation Zrotation
									JOINT mixamorig:LeftHandThumb2
									{
										OFFSET 3.675461 -2.122025 2.122029
										CHANNELS 6 Xposition Yposition Zposition Xrotation Yrotation Zrotation
										JOINT mixamorig:LeftHandThumb3
										{
											OFFSET 3.394363 -1.959732 1.959735
											CHANNELS 6 Xposition Yposition Zposition Xrotation Yrotation Zrotation
											JOINT mixamorig:LeftHandThumb4
											{
												OFFSET 2.679405 -1.546951 1.546957
												CHANNELS 6 Xposition Yposition Zposition Xrotation Yrotation Zrotation
												End Site
												{
													OFFSET 2.400513 -1.530563 1.964770
												}
											}
										}
									}
								}
								JOINT mixamorig:LeftHandIndex1
								{
									OFFSET 12.266594 -0.231796 2.822001
									CHANNELS 6 Xposition Yposition Zposition Xrotation Yrotation Zrotation
									JOINT mixamorig:LeftHandIndex2
									{
										OFFSET 3.891998 0.000000 0.000000
										CHANNELS 3 Xrotation Yrotation Zrotation
										JOINT mixamorig:LeftHandIndex3
										{
											OFFSET 3.415207 0.000000 0.000000
											CHANNELS 3 Xrotation Yrotation Zrotation
											JOINT mixamorig:LeftHandIndex4
											{
												OFFSET 3.077995 0.000000 0.000000
												CHANNELS 3 Xrotation Yrotation Zrotation
												End Site
												{
													OFFSET 3.078003 0.000000 0.000140
												}
											}
										}
									}
								}
								JOINT mixamorig:LeftHandMiddle1
								{
									OFFSET 12.775497 0.000000 0.000000
									CHANNELS 6 Xposition Yposition Zposition Xrotation Yrotation Zrotation
									JOINT mixamorig:LeftHandMiddle2
									{
										OFFSET 3.613998 0.000000 0.000000
										CHANNELS 3 Xrotation Yrotation Zrotation
										JOINT mixamorig:LeftHandMiddle3
										{
											OFFSET 3.459793 0.000000 0.000000
											CHANNELS 3 Xrotation Yrotation Zrotation
											JOINT mixamorig:LeftHandMiddle4
											{
												OFFSET 3.680214 0.000000 0.000000
												CHANNELS 3 Xrotation Yrotation Zrotation
												End Site
												{
													OFFSET 3.680199 0.000031 -0.004817
												}
											}
										}
									}
								}
								JOINT mixamorig:LeftHandRing1
								{
									OFFSET 12.146996 0.009995 -2.216599
									CHANNELS 6 Xposition Yposition Zposition Xrotation Yrotation Zrotation
									JOINT mixamorig:LeftHandRing2
									{
										OFFSET 3.601196 0.000000 0.000000
										CHANNELS 3 Xrotation Yrotation Zrotation
										JOINT mixamorig:LeftHandRing3
										{
											OFFSET 3.307304 0.000000 0.000000
											CHANNELS 3 Xrotation Yrotation Zrotation
											JOINT mixamorig:LeftHandRing4
											{
												OFFSET 3.660095 0.000000 0.000000
												CHANNELS 3 Xrotation Yrotation Zrotation
												End Site
												{
													OFFSET 3.660095 -0.000107 0.005639
												}
											}
										}
									}
								}
								JOINT mixamorig:LeftHandPinky1
								{
									OFFSET 10.908195 -0.226105 -4.725800
									CHANNELS 6 Xposition Yposition Zposition Xrotation Yrotation Zrotation
									JOINT mixamorig:LeftHandPinky2
									{
										OFFSET 4.136703 0.000000 0.000000
										CHANNELS 3 Xrotation Yrotation Zrotation
										JOINT mixamorig:LeftHandPinky3
										{
											OFFSET 2.594803 0.000000 0.000000
											CHANNELS 3 Xrotation Yrotation Zrotation
											JOINT mixamorig:LeftHandPinky4
											{
												OFFSET 2.923904 0.000000 0.000000
												CHANNELS 3 Xrotation Yrotation Zrotation
												End Site
												{
													OFFSET 2.923897 0.000015 -0.003363
												}
											}
										}
									}
								}
							}
						}
					}
				}
				JOINT mixamorig:RightShoulder
				{
					OFFSET -6.106493 9.110001 0.705582
					CHANNELS 6 Xposition Yposition Zposition Xrotation Yrotation Zrotation
					JOINT mixamorig:RightArm
					{
						OFFSET -12.655064 -0.265533 -2.600914
						CHANNELS 3 Xrotation Yrotation Zrotation
						JOINT mixamorig:RightForeArm
						{
							OFFSET -27.404697 0.000000 -0.000000
							CHANNELS 3 Xrotation Yrotation Zrotation
							JOINT mixamorig:RightHand
							{
								OFFSET -27.614510 0.000000 -0.000000
								CHANNELS 3 Xrotation Yrotation Zrotation
								JOINT mixamorig:RightHandThumb1
								{
									OFFSET -3.788803 -2.167099 3.003001
									CHANNELS 6 Xposition Yposition Zposition Xrotation Yrotation Zrotation
									JOINT mixamorig:RightHandThumb2
									{
										OFFSET -3.675461 -2.122025 2.122028
										CHANNELS 6 Xposition Yposition Zposition Xrotation Yrotation Zrotation
										JOINT mixamorig:RightHandThumb3
										{
											OFFSET -3.394363 -1.959732 1.959735
											CHANNELS 6 Xposition Yposition Zposition Xrotation Yrotation Zrotation
											JOINT mixamorig:RightHandThumb4
											{
												OFFSET -2.679405 -1.546951 1.546957
												CHANNELS 6 Xposition Yposition Zposition Xrotation Yrotation Zrotation
												End Site
												{
													OFFSET -2.398972 -1.531448 1.965965
												}
											}
										}
									}
								}
								JOINT mixamorig:RightHandIndex1
								{
									OFFSET -12.266602 -0.231796 2.822000
									CHANNELS 6 Xposition Yposition Zposition Xrotation Yrotation Zrotation
									JOINT mixamorig:RightHandIndex2
									{
										OFFSET -3.891998 0.000000 0.000000
										CHANNELS 3 Xrotation Yrotation Zrotation
										JOINT mixamorig:RightHandIndex3
										{
											OFFSET -3.415207 0.000000 0.000000
											CHANNELS 3 Xrotation Yrotation Zrotation
											JOINT mixamorig:RightHandIndex4
											{
												OFFSET -3.077995 0.000000 0.000000
												CHANNELS 3 Xrotation Yrotation Zrotation
												End Site
												{
													OFFSET -3.077995 0.000504 -0.008460
												}
											}
										}
									}
								}
								JOINT mixamorig:RightHandMiddle1
								{
									OFFSET -12.775505 0.000000 -0.000000
									CHANNELS 6 Xposition Yposition Zposition Xrotation Yrotation Zrotation
									JOINT mixamorig:RightHandMiddle2
									{
										OFFSET -3.613998 0.000000 0.000000
										CHANNELS 3 Xrotation Yrotation Zrotation
										JOINT mixamorig:RightHandMiddle3
										{
											OFFSET -3.459793 0.000000 0.000000
											CHANNELS 3 Xrotation Yrotation Zrotation
											JOINT mixamorig:RightHandMiddle4
											{
												OFFSET -3.680214 0.000000 0.000000
												CHANNELS 3 Xrotation Yrotation Zrotation
												End Site
												{
													OFFSET -3.680176 0.000290 0.012574
												}
											}
										}
									}
								}
								JOINT mixamorig:RightHandRing1
								{
									OFFSET -12.147003 0.009995 -2.216600
									CHANNELS 6 Xposition Yposition Zposition Xrotation Yrotation Zrotation
									JOINT mixamorig:RightHandRing2
									{
										OFFSET -3.601196 0.000000 0.000000
										CHANNELS 3 Xrotation Yrotation Zrotation
										JOINT mixamorig:RightHandRing3
										{
											OFFSET -3.307304 0.000000 0.000000
											CHANNELS 3 Xrotation Yrotation Zrotation
											JOINT mixamorig:RightHandRing4
											{
												OFFSET -3.660103 0.000000 0.000000
												CHANNELS 3 Xrotation Yrotation Zrotation
												End Site
												{
													OFFSET -3.660103 0.000427 0.002204
												}
											}
										}
									}
								}
								JOINT mixamorig:RightHandPinky1
								{
									OFFSET -10.908203 -0.226105 -4.725801
									CHANNELS 6 Xposition Yposition Zposition Xrotation Yrotation Zrotation
									JOINT mixamorig:RightHandPinky2
									{
										OFFSET -4.136703 0.000000 0.000000
										CHANNELS 3 Xrotation Yrotation Zrotation
										JOINT mixamorig:RightHandPinky3
										{
											OFFSET -2.594803 0.000000 0.000000
											CHANNELS 3 Xrotation Yrotation Zrotation
											JOINT mixamorig:RightHandPinky4
											{
												OFFSET -2.923904 0.000000 0.000000
												CHANNELS 3 Xrotation Yrotation Zrotation
												End Site
												{
													OFFSET -2.923866 0.000595 -0.012896
												}
											}
										}
									}
								}
							}
						}
					}
				}
			}
		}
	}
	JOINT mixamorig:LeftUpLeg
	{
		OFFSET 9.124481 -6.656403 -0.055368
		CHANNELS 6 Xposition Yposition Zposition Xrotation Yrotation Zrotation
		JOINT mixamorig:LeftLeg
		{
			OFFSET 0.244688 -40.595383 -0.515629
			CHANNELS 3 Xrotation Yrotation Zrotation
			JOINT mixamorig:LeftFoot
			{
				OFFSET -0.244684 -42.047905 -2.059130
				CHANNELS 3 Xrotation Yrotation Zrotation
				JOINT mixamorig:LeftToeBase
				{
					OFFSET 0.373535 -7.208565 13.966596
					CHANNELS 3 Xrotation Yrotation Zrotation
					JOINT mixamorig:LeftToe_End
					{
						OFFSET -0.142057 -0.175231 9.997458
						CHANNELS 3 Xrotation Yrotation Zrotation
						End Site
						{
							OFFSET -0.142057 -0.175231 9.997458
						}
					}
				}
			}
		}
	}
	JOINT mixamorig:RightUpLeg
	{
		OFFSET -9.124419 -6.656395 -0.055432
		CHANNELS 6 Xposition Yposition Zposition Xrotation Yrotation Zrotation
		JOINT mixamorig:RightLeg
		{
			OFFSET -0.244683 -40.595413 -0.514284
			CHANNELS 3 Xrotation Yrotation Zrotation
			JOINT mixamorig:RightFoot
			{
				OFFSET 0.244687 -42.047836 -2.060526
				CHANNELS 3 Xrotation Yrotation Zrotation
				JOINT mixamorig:RightToeBase
				{
					OFFSET -0.373540 -7.208565 13.966594
					CHANNELS 3 Xrotation Yrotation Zrotation
					JOINT mixamorig:RightToe_End
					{
						OFFSET 0.141792 -0.175015 9.997463
						CHANNELS 3 Xrotation Yrotation Zrotation
						End Site
						{
							OFFSET 0.141792 -0.175015 9.997463
						}
					}
				}
			}
		}
	}
}
MOTION
Frames: 4
Frame Time: 0.016667
-0.075552 97.953438 0.072098 1.019261 2.710713 -1.720813 0.000038 9.923502 -1.227300 0.192057 0.333686 0.448081 0.384979 0.692414 0.496923 0.384981 0.692415 0.496922 -0.001308 15.032512 0.792904 -0.004308 -0.455992 -1.208089 -0.000902 10.321813 3.142400 2.744958 -3.027617 1.908107 -0.001416 18.474701 6.636399 -0.000000 -0.000000 -0.000000 6.105001 9.110950 0.705600 0.546332 -14.779638 -16.719067 -6.085842 6.471318 -50.651389 18.149201 -31.939054 -5.078761 19.399902 -9.017028 14.005270 3.788808 -2.167079 3.003006 -4.345605 9.457282 -7.836148 3.675468 -2.122019 2.122029 2.321164 6.714614 2.170803 3.394348 -1.959765 1.959737 0.000006 0.000008 -0.000000 2.679397 -1.546939 1.546956 -0.000001 -0.000005 0.000007 12.266596 -0.231795 2.822005 -1.499778 -3.814469 -43.148754 -5.662652 -4.118059 -82.311122 -0.000000 -0.000002 0.000001 0.000002 -0.000003 0.000002 12.775496 -0.000007 0.000004 -7.908993 -5.580405 -63.605297 -7.590174 -5.253679 -102.716804 -0.000001 0.000002 0.000003 -0.000004 0.000001 -0.000001 12.147007 0.009989 -2.216600 -11.487029 3.391631 -64.339959 -4.456455 -4.255253 -105.407058 0.000000 0.000000 0.000000 -0.000001 -0.000000 0.000001 10.908213 -0.226112 -4.725798 -15.030332 7.738559 -73.848620 -1.777777 -6.205668 -96.171447 0.000002 -0.000004 0.000001 0.000001 -0.000005 0.000001 -6.106492 9.110001 0.705582 1.417808 7.418200 17.752987 0.623219 -19.220152 55.031077 11.687452 24.821877 10.776483 22.357779 3.434304 -7.264722 -3.788801 -2.167111 3.003002 -9.602791 -7.271436 -3.550068 -3.675467 -2.122025 2.122029 28.956126 -3.829594 -1.361167 -3.394377 -1.959728 1.959737 0.000005 0.000011 -0.000001 -2.679407 -1.546953 1.546956 -0.000000 0.000000 -0.000002 -12.266617 -0.231795 2.821998 -2.363363 -1.255328 39.624748 -4.710303 1.438904 67.074035 -0.000005 0.000001 -0.000001 -0.000000 0.000000 0.000001 -12.775492 -0.000013 -0.000001 -4.849799 -0.701725 49.132457 -6.221463 1.763790 73.275342 0.000001 0.000002 0.000004 0.000001 -0.000001 -0.000001 -12.147017 0.010002 -2.216602 -3.144887 3.169602 48.237569 -2.903602 6.439023 80.689854 0.000001 -0.000003 0.000000 0.000001 0.000001 0.000001 -10.908195 -0.226103 -4.725800 -3.191768 6.453721 44.656292 -3.191139 10.393811 87.421681 -0.000001 0.000010 0.000002 0.000001 -0.000002 0.000005 9.124481 -6.656404 -0.055367 -27.738768 5.604543 6.956336 64.370025 -0.894837 0.774429 0.062491 0.379853 -1.279790 -3.869735 -1.820993 0.011322 0.000002 0.000001 -0.000000 -9.124417 -6.656397 -0.055432 -12.078951 -8.846343 2.854596 20.358292 7.887349 -0.010302 -8.650467 0.546653 -4.523290 -4.894238 -0.667436 0.583833 -0.000000 0.000000 -0.000000 
-0.125545 98.268890 2.806592 1.036917 2.006861 -1.662963 0.000038 9.923503 -1.227301 0.200290 0.507108 0.338729 0.402801 1.030802 0.284786 0.402801 1.030801 0.284786 -0.001308 15.032484 0.792906 0.054254 -0.586131 -0.677953 -0.000903 10.321820 3.142400 2.700011 -2.963185 1.516359 -0.001416 18.474716 6.636401 -0.000001 -0.000000 -0.000000 6.105008 9.110939 0.705602 0.656557 -14.393377 -16.337594 -4.621660 9.008349 -52.102387 17.406662 -31.463605 -4.750194 20.900066 -9.396430 13.466094 3.788810 -2.167092 3.003004 -4.345605 9.457290 -7.836151 3.675470 -2.122013 2.122028 2.321160 6.714611 2.170802 3.394368 -1.959763 1.959734 -0.000000 0.000005 0.000004 2.679407 -1.546948 1.546950 0.000001 0.000004 0.000002 12.266607 -0.231811 2.821997 -1.475121 -3.893351 -42.405762 -5.483356 -4.091515 -80.815707 0.000001 -0.000003 0.000001 -0.000002 -0.000001 -0.000000 12.775500 -0.000002 0.000002 -7.868063 -5.659556 -62.874248 -7.431749 -5.286586 -101.217359 -0.000006 0.000003 0.000001 -0.000001 0.000001 -0.000002 12.147034 0.009985 -2.216602 -11.425507 3.308209 -63.621470 -4.367239 -4.278908 -103.909649 -0.000000 0.000000 0.000001 -0.000001 0.000001 0.000001 10.908211 -0.226102 -4.725806 -14.964823 7.653658 -73.136525 -1.745819 -6.208689 -94.674775 -0.000003 -0.000002 -0.000001 -0.000004 0.000000 -0.000003 -6.106494 9.109996 0.705583 1.421111 7.598115 17.238677 -0.603098 -20.888356 54.847245 9.864337 30.704986 11.824510 24.031447 0.115596 -5.534707 -3.788792 -2.167104 3.003003 -9.523925 -7.042303 -3.094014 -3.675450 -2.122020 2.122026 28.414236 -3.992566 -1.215180 -3.394381 -1.959723 1.959738 0.000009 0.000011 -0.000002 -2.679391 -1.546936 1.546951 0.000004 0.000003 -0.000006 -12.266610 -0.231789 2.822000 -2.409371 -1.239792 40.647999 -4.757247 1.458313 67.602187 -0.000003 0.000003 -0.000001 0.000001 0.000000 0.000000 -12.775500 -0.000022 -0.000002 -4.922262 -0.642961 49.903418 -6.264585 1.777258 73.772907 0.000001 -0.000001 0.000004 0.000000 -0.000002 0.000001 -12.147019 0.010004 -2.216603 -3.222650 3.233241 48.919973 -2.958380 6.452177 81.310977 0.000002 -0.000003 0.000001 0.000001 -0.000003 -0.000000 -10.908207 -0.226116 -4.725800 -3.300721 6.581410 45.270897 -3.238201 10.403129 88.074080 0.000005 0.000009 -0.000002 0.000001 0.000000 0.000000 9.124483 -6.656408 -0.055367 -29.763803 5.578159 6.719574 61.322162 0.089710 0.271460 -1.406567 0.397674 -1.014315 -3.282447 -1.048760 0.274779 -0.000002 0.000001 -0.000000 -9.124419 -6.656393 -0.055430 -9.816940 -9.157451 3.005998 19.542524 8.322171 0.017573 -8.989451 0.666867 -4.922176 -5.142474 -0.681669 0.546017 0.000000 -0.000000 -0.000000 
-0.183631 98.505104 5.586607 1.019779 1.348056 -1.712361 0.000039 9.923505 -1.227301 0.211067 0.670310 0.261397 0.425716 1.349875 0.145007 0.425715 1.349876 0.145007 -0.001308 15.032507 0.792906 0.554374 -0.618629 -0.456718 -0.000902 10.321804 3.142400 2.291792 -2.943981 1.553055 -0.001416 18.474701 6.636401 -0.000000 0.000000 0.000000 6.105005 9.110968 0.705601 0.862989 -13.532259 -15.845521 -3.195053 10.284150 -53.447914 17.211681 -30.374524 -4.510859 21.543810 -9.893924 13.343280 3.788814 -2.167118 3.003000 -4.345607 9.457288 -7.836151 3.675461 -2.122018 2.122034 2.321157 6.714609 2.170803 3.394346 -1.959733 1.959733 0.000002 0.000005 0.000004 2.679394 -1.546943 1.546959 0.000005 -0.000000 0.000008 12.266609 -0.231811 2.822001 -1.444711 -3.968201 -41.579828 -5.292735 -4.058012 -79.219048 0.000001 -0.000003 0.000001 0.000003 -0.000003 0.000000 12.775496 0.000010 0.000005 -7.819564 -5.736419 -62.060253 -7.261872 -5.318285 -99.616062 -0.000005 0.000006 0.000002 -0.000003 -0.000003 0.000000 12.147022 0.009983 -2.216600 -11.360374 3.224849 -62.820788 -4.271065 -4.300661 -102.310626 0.000000 -0.000003 -0.000001 0.000002 -0.000003 -0.000000 10.908216 -0.226102 -4.725800 -14.892036 7.562632 -72.344544 -1.711560 -6.210971 -93.076566 0.000001 -0.000002 -0.000001 -0.000001 -0.000001 -0.000002 -6.106493 9.110009 0.705583 1.325989 8.196597 16.980482 -2.309827 -21.673471 54.338485 8.124843 34.691050 13.057580 25.101362 -2.546574 -4.402567 -3.788808 -2.167125 3.002999 -9.448023 -6.747999 -2.600184 -3.675440 -2.122036 2.122027 27.972768 -3.921645 -1.248801 -3.394378 -1.959719 1.959734 0.000006 0.000008 -0.000003 -2.679395 -1.546954 1.546958 0.000007 0.000003 -0.000004 -12.266630 -0.231787 2.821999 -2.449880 -1.213457 41.466526 -4.804901 1.475894 68.229942 -0.000004 0.000002 -0.000001 -0.000002 0.000001 0.000000 -12.775510 -0.000009 -0.000001 -4.990637 -0.590100 50.610790 -6.311750 1.790222 74.333256 -0.000000 -0.000002 0.000004 0.000002 0.000000 0.000001 -12.147036 0.009997 -2.216603 -3.286356 3.307164 49.524735 -3.012630 6.464639 81.927798 0.000002 -0.000004 0.000003 0.000000 -0.000007 0.000000 -10.908216 -0.226088 -4.725797 -3.367473 6.649497 45.859188 -3.286332 10.413818 88.772010 -0.000001 0.000007 0.000002 0.000000 0.000001 -0.000001 9.124482 -6.656406 -0.055366 -31.241818 5.493647 6.490531 57.060565 1.226417 -0.035147 -2.568051 0.391792 -0.724722 -4.473368 -0.315248 -0.466520 -0.000002 0.000000 0.000000 -9.124420 -6.656386 -0.055431 -7.395784 -9.471040 3.161265 18.463460 8.855909 0.132152 -9.101312 0.746710 -5.022878 -5.178828 -0.680227 0.436512 0.000000 -0.000000 0.000000 
-0.228276 98.546967 8.309049 0.971532 0.738336 -1.807252 0.000038 9.923488 -1.227301 0.267626 0.822813 0.180465 0.540392 1.649265 0.002187 0.540390 1.649269 0.002186 -0.001308 15.032524 0.792905 0.517689 -0.778477 0.219583 -0.000902 10.321813 3.142399 2.233464 -2.794262 1.116273 -0.001416 18.474716 6.636401 0.000000 0.000000 -0.000000 6.105002 9.110958 0.705602 0.925391 -13.224623 -15.788773 -1.134179 11.837032 -54.020161 17.522355 -30.724322 -4.223476 21.038967 -9.756278 13.245170 3.788815 -2.167079 3.002999 -4.345599 9.457293 -7.836148 3.675463 -2.122007 2.122030 2.321163 6.714613 2.170802 3.394352 -1.959733 1.959740 0.000001 0.000006 0.000002 2.679390 -1.546947 1.546959 -0.000005 -0.000002 0.000006 12.266610 -0.231785 2.821998 -1.408913 -4.039916 -40.691655 -5.094137 -4.017271 -77.546478 0.000003 0.000002 -0.000001 0.000003 -0.000000 -0.000001 12.775521 0.000002 -0.000001 -7.764486 -5.811309 -61.183899 -7.083302 -5.347643 -97.938363 -0.000007 -0.000000 0.000001 0.000001 -0.000002 -0.000002 12.147030 0.010021 -2.216603 -11.289360 3.143191 -61.958688 -4.169403 -4.319450 -100.635304 -0.000002 0.000003 -0.000001 -0.000000 0.000003 -0.000002 10.908237 -0.226093 -4.725803 -14.812592 7.476536 -71.491119 -1.675647 -6.212372 -91.402240 0.000001 -0.000000 -0.000000 -0.000000 0.000003 0.000001 -6.106490 9.109974 0.705582 1.361082 8.304613 16.286038 -4.424884 -20.540477 54.051494 6.897411 37.112721 14.057678 25.136781 -4.787789 -3.914107 -3.788825 -2.167099 3.003004 -9.374540 -6.401984 -2.077556 -3.675447 -2.122027 2.122027 27.591034 -3.759315 -1.352560 -3.394372 -1.959717 1.959736 0.000008 0.000011 0.000003 -2.679399 -1.546937 1.546954 0.000003 0.000003 -0.000006 -12.266628 -0.231801 2.821997 -2.487137 -1.184187 42.199777 -4.855140 1.493961 68.871126 -0.000003 0.000001 -0.000001 0.000001 0.000000 -0.000000 -12.775512 0.000004 0.000001 -5.050633 -0.546128 51.287057 -6.360867 1.803295 74.913344 0.000001 0.000001 0.000005 0.000002 -0.000002 0.000001 -12.147007 0.009992 -2.216602 -3.343830 3.377959 50.111213 -3.067026 6.476486 82.547822 0.000000 0.000000 0.000001 -0.000000 -0.000002 0.000000 -10.908231 -0.226091 -4.725797 -3.417492 6.699053 46.431045 -3.336379 10.424020 89.495456 0.000003 0.000010 0.000004 0.000002 -0.000001 0.000001 9.124482 -6.656421 -0.055367 -32.139168 5.035010 6.032651 52.009193 2.751782 -0.145458 -3.614880 0.383701 -0.539107 -6.122091 4.072513 -3.885299 -0.000000 -0.000001 0.000000 -9.124416 -6.656412 -0.055431 -5.337245 -9.786499 3.235160 18.097472 9.400660 0.295649 -9.608709 0.839420 -5.209153 -5.247197 -0.709809 0.400272 -0.000000 -0.000000 0.000000 
